<svg width="53" height="53" viewBox="0 0 53 53" fill="none" xmlns="http://www.w3.org/2000/svg">
<g filter="url(#filter0_d_1395_5352)">
<path d="M6.24995 30.6416C3.64998 28.9714 3.17247 25.3661 5.24799 23.0767L14.3149 13.0751C20.6653 6.07006 31.6726 6.07005 38.023 13.0751L47.0899 23.0767C49.1654 25.3661 48.6879 28.9714 46.0879 30.6416L38.0596 35.799C30.8155 40.4526 21.5224 40.4526 14.2783 35.799L6.24995 30.6416Z" fill="#F74602"/>
<mask id="mask0_1395_5352" style="mask-type:alpha" maskUnits="userSpaceOnUse" x="3" y="7" width="46" height="33">
<path d="M6.24995 30.6416C3.64998 28.9714 3.17247 25.3661 5.24799 23.0767L14.3149 13.0751C20.6653 6.07006 31.6726 6.07005 38.023 13.0751L47.0899 23.0767C49.1654 25.3661 48.6879 28.9714 46.0879 30.6416L38.0596 35.799C30.8155 40.4526 21.5224 40.4526 14.2783 35.799L6.24995 30.6416Z" fill="#F74602"/>
</mask>
<g mask="url(#mask0_1395_5352)">
<ellipse cx="26.1691" cy="12.2944" rx="45.505" ry="17.6811" fill="#FD8300"/>
</g>
</g>
<defs>
<filter id="filter0_d_1395_5352" x="-0.0488281" y="7.82031" width="52.4355" height="39.4688" filterUnits="userSpaceOnUse" color-interpolation-filters="sRGB">
<feFlood flood-opacity="0" result="BackgroundImageFix"/>
<feColorMatrix in="SourceAlpha" type="matrix" values="0 0 0 0 0 0 0 0 0 0 0 0 0 0 0 0 0 0 127 0" result="hardAlpha"/>
<feOffset dy="4"/>
<feGaussianBlur stdDeviation="2"/>
<feComposite in2="hardAlpha" operator="out"/>
<feColorMatrix type="matrix" values="0 0 0 0 0 0 0 0 0 0 0 0 0 0 0 0 0 0 0.25 0"/>
<feBlend mode="normal" in2="BackgroundImageFix" result="effect1_dropShadow_1395_5352"/>
<feBlend mode="normal" in="SourceGraphic" in2="effect1_dropShadow_1395_5352" result="shape"/>
</filter>
</defs>
</svg>
